<?xml version="1.0" encoding="UTF-8"?>
<svg id="Capa_2" data-name="Capa 2" xmlns="http://www.w3.org/2000/svg" viewBox="0 0 481.45 497.15">
  <g id="Capa_1-2" data-name="Capa 1">
    <g>
      <path d="m452.45,0c4.43,2.55,5.61,6.47,5.6,11.41-.1,64.58-.06,129.16-.07,193.74,0,8.7-2.62,11.3-11.3,11.3-72.68,0-145.37.03-218.05-.06-3.72,0-5.92.82-7.99,4.37-7.3,12.51-23.18,16.62-35.97,9.75-11.11-5.97-22.14-12.07-33.22-18.1-1.37-.75-2.79-1.4-4.88-2.44,0,2.6,0,4.47,0,6.35-.03,15.7-.04,31.4-.1,47.1-.03,7.28-2.76,10.18-9.87,10.19-27.52.05-55.04.05-82.56,0-6.99-.01-9.74-2.77-9.87-9.65-.06-3.35-.01-6.7-.01-9.62-4.56-.25-8.64.04-12.49-.78-9.23-1.96-17.02-10.06-17.09-19.38-.17-21.16-2.12-42.42,1.76-63.45,2.74-14.83,8.68-28.39,17.26-40.78,7.55-10.9,18.39-16.63,31.19-17.18,19.06-.83,38.18-.66,57.27-.36,11.79.19,21.29,5.97,29.18,14.49,1.5,1.63,2.86,3.39,5.08,6.05,0-2.74,0-4.43,0-6.11,0-38.52.06-77.04-.07-115.56-.02-4.99,1.22-8.86,5.76-11.3h290.44Zm-188.17,116c-1.06,1.68-1.89,3.06-2.78,4.38-13.46,19.99-26.83,40.05-40.48,59.91-2.81,4.09-4.68,7.43-.33,11.52,1.11,1.04,1.89,2.74,2.2,4.26.72,3.58,2.79,4.25,6.17,4.25,69.28-.09,138.56-.07,207.84-.08,1.55,0,3.1-.16,4.51-.24V16.35H172.76c-.09,1.82-.23,3.39-.23,4.96-.01,44.51-.05,89.02.09,133.52,0,2.48.72,6.21,2.41,7.24,9.18,5.61,18.76,10.57,28.37,15.84,15.99-23.71,31.71-47.01,47.7-70.73,4.52,3.02,8.76,5.86,13.18,8.82Zm-133.74,141.33c0-4.72-.01-9.06,0-13.39.06-18.93.13-37.87.21-56.8.03-7.75,2.65-11.42,8.06-11.34,5.28.08,7.77,3.62,7.81,11.09,0,.65-.21,1.39.04,1.92.62,1.33,1.12,3.14,2.23,3.76,14.54,8.12,29.08,16.22,43.82,23.98,7.45,3.92,15.92-1.71,16-10.16.05-5.55-3.05-8.98-7.59-11.46-11.35-6.2-22.77-12.27-34.01-18.66-2.56-1.45-4.99-3.68-6.61-6.12-6.17-9.29-11.91-18.87-17.95-28.24-5.2-8.07-12.41-13.44-22.24-13.61-17.15-.31-34.32-.32-51.47.05-9.05.2-17.12,3.31-22.48,11.34-7.28,10.9-13.27,22.63-14.31,35.66-1.48,18.5-1.44,37.13-1.77,55.71-.08,4.54,3.04,7.2,6.93,7.16,3.97-.04,6.57-2.65,6.86-7.26.2-3.22.07-6.47.07-9.71.01-14.24-.06-28.48.06-42.72.05-5.23,3.41-8.55,7.99-8.5,4.57.06,7.67,3.47,7.86,8.68.05,1.29.01,2.59.01,3.88,0,23.14,0,46.29,0,69.43,0,1.71,0,3.43,0,5.31h70.46Z"/>
      <path d="m167.16,463.42c0-8.57-.68-17.21.14-25.71,1.78-18.34,11.83-31.73,26.88-41.75,31.79-21.18,75.27-18.22,102.61,6.94,11.96,11,18.2,24.58,18.42,40.78.2,14.56.11,29.13.03,43.7-.04,7.4-3.83,10.51-11.17,9.62-2.4-.29-4.83-.45-7.25-.45-39.66-.03-79.32-.01-118.98-.02-9.47,0-11.81-2.37-11.65-11.75.06-3.56.2-7.12.25-10.68.04-3.56,0-7.12,0-10.68.24,0,.48,0,.71,0Zm16.24,16.87h115.64c0-12.78.1-25.22-.03-37.66-.1-9.81-3.67-18.39-10.57-25.32-26.11-26.2-69.49-25.76-95.15.31-5.48,5.57-9.4,12.38-9.72,20.14-.58,14.03-.16,28.09-.16,42.52Z"/>
      <path d="m1.09,463.21c0-8.73-.8-17.56.16-26.18,2.23-20.11,14.1-33.85,31.08-43.71,34.16-19.82,78.64-13.36,103.48,14.99,9.05,10.33,13.13,22.51,13.24,36.08.12,14.24.09,28.49.01,42.73-.04,7.78-3.7,10.82-11.38,9.86-2.24-.28-4.51-.41-6.77-.42-39.82-.02-79.64-.01-119.46-.02-9.14,0-11.52-2.44-11.45-11.48.05-7.28.01-14.56.01-21.84.36,0,.72,0,1.08,0Zm131.71,17.21c0-13.79.35-27.06-.12-40.3-.32-8.83-4.13-16.63-10.46-22.88-23.93-23.67-62.1-26.28-89.85-4.52-10.15,7.96-15.47,18.43-15.65,31.42-.15,11-.31,22-.43,33-.01,1.07.23,2.13.37,3.29h116.14Z"/>
      <path d="m333.31,463.73c0-8.57-.68-17.21.14-25.71,1.96-20.35,13.65-34.41,30.76-44.44,30.81-18.06,69.53-15.12,96.31,7.2,13.76,11.47,20.82,26.12,20.89,44.05.06,14.08.05,28.16,0,42.24-.03,7.77-3.7,10.86-11.34,9.91-2.24-.28-4.51-.42-6.76-.42-39.66-.02-79.32-.01-118.97-.02-10.03,0-12.1-2.23-11.94-12.42.11-6.79.02-13.59.02-20.39.3,0,.61,0,.91,0Zm131.87,16.71c0-12.95.09-25.39-.03-37.83-.09-9.82-3.65-18.41-10.58-25.31-23.81-23.71-61.99-26.4-89.83-4.63-10.12,7.92-15.57,18.34-15.63,31.4-.04,7.6-.33,15.2-.45,22.8-.07,4.46-.01,8.93-.01,13.56h116.52Z"/>
      <path d="m94.22,103.32c-24.84.17-44.99-19.86-45.11-44.85-.13-24.97,19.7-45.13,44.64-45.37,24.71-.24,45,19.96,45.11,44.89.11,25.03-19.71,45.15-44.63,45.32Zm.22-74.18c-15.98-.19-29.17,12.63-29.45,28.63-.28,15.9,12.7,29.37,28.52,29.6,15.87.23,29.13-12.66,29.47-28.67.34-15.84-12.72-29.37-28.53-29.56Z"/>
      <path d="m115.68,327.79c.05,22.97-18.31,41.41-41.21,41.38-22.83-.03-41.32-18.66-41.17-41.49.16-22.71,18.5-41.12,41.03-41.18,22.89-.06,41.29,18.32,41.34,41.28Zm-66.34-.13c-.09,13.96,11.12,25.45,24.98,25.61,13.71.16,25.33-11.34,25.45-25.19.12-13.9-11.15-25.41-25.03-25.55-13.86-.14-25.31,11.19-25.4,25.13Z"/>
      <path d="m365.73,327.18c.4-23.17,19.14-41.14,42.42-40.66,22.12.45,40.29,19.47,39.91,41.78-.39,23.25-19.02,41.26-42.25,40.85-22.51-.4-40.47-19.21-40.08-41.98Zm15.89.86c.09,13.85,11.67,25.36,25.4,25.24,13.84-.12,25.11-11.63,25.04-25.56-.08-13.95-11.5-25.29-25.36-25.18-13.88.11-25.16,11.59-25.07,25.5Z"/>
      <path d="m281.86,328.04c-.12,22.98-18.54,41.25-41.47,41.13-22.81-.12-41.15-18.86-40.86-41.74.3-22.99,18.78-41.12,41.71-40.92,22.51.19,40.74,18.83,40.62,41.53Zm-15.95-.06c.06-13.94-11.22-25.37-25.12-25.44-13.84-.08-25.28,11.32-25.32,25.23-.05,13.89,11.31,25.42,25.11,25.51,13.75.08,25.27-11.43,25.33-25.3Z"/>
      <path d="m416.22,180.37h-15.44V42.29h15.44v138.08Z"/>
      <path d="m309.51,180.28h-15.27v-81.19h15.27v81.19Z"/>
      <path d="m357.62,104.14h15.62v76.04h-15.62v-76.04Z"/>
      <path d="m326.59,128.27h15.29v51.94h-15.29v-51.94Z"/>
    </g>
  </g>
</svg>